<?xml version="1.0" ?>
<!DOCTYPE svg  PUBLIC '-//W3C//DTD SVG 1.1//EN'  'http://www.w3.org/Graphics/SVG/1.1/DTD/svg11.dtd'>
<!-- Uploaded to: SVG Repo, www.svgrepo.com, Generator: SVG Repo Mixer Tools -->
<svg fill="#000000" width="800px" height="800px" viewBox="0 0 64 64" enable-background="new 0 0 64 64" version="1.1" xml:space="preserve" xmlns="http://www.w3.org/2000/svg" xmlns:xlink="http://www.w3.org/1999/xlink">
<g id="_x31_-smartphone"/>
<g id="_x32_-smartTV"/>
<g id="_x33_-telepon"/>
<g id="_x34_-computer">
<g>
<path d="M37,7H7v25h30V7z M35,30H9V9h26V30z"/>
<path d="M28,36h13V3H3v33h13v6H3v19h39V42H28V36z M5,34V5h34v29H28H16H5z M18,36h8v6h-8V36z M40,44v15H5V44h11h12H40z"/>
<path d="M44,15v46h17V15H44z M59,59H46V17h13V59z"/>
<rect height="23" width="2" x="51" y="21"/>
<path d="M52,56c2.206,0,4-1.794,4-4s-1.794-4-4-4s-4,1.794-4,4S49.794,56,52,56z M52,50c1.103,0,2,0.897,2,2s-0.897,2-2,2    s-2-0.897-2-2S50.897,50,52,50z"/>
<rect height="2" width="20" x="12" y="51"/>
</g>
</g>
<g id="_x35_-kalkulator"/>
<g id="_x36_-radio"/>
<g id="_x37_-hadset"/>
<g id="_x38_-usbflashdisk"/>
<g id="_x39_-camera"/>
<g id="_x31_0-printer"/>
<g id="_x31_1-powerbank"/>
<g id="_x31_2-kulkas"/>
<g id="_x31_3-modem"/>
<g id="_x31_4-tablet"/>
<g id="_x31_5-gamebot"/>
<g id="_x31_6-wasing_machine"/>
<g id="_x31_7-handdryer"/>
<g id="_x31_8-blender"/>
<g id="_x31_9-controller"/>
<g id="_x32_0-michrophone"/>
<g id="_x32_1-lamp"/>
</svg>