<?xml version="1.0" encoding="utf-8"?>

<!DOCTYPE svg PUBLIC "-//W3C//DTD SVG 1.1//EN" "http://www.w3.org/Graphics/SVG/1.1/DTD/svg11.dtd">
<!-- Uploaded to: SVG Repo, www.svgrepo.com, Generator: SVG Repo Mixer Tools -->
<svg fill="#000000" height="800px" width="800px" version="1.1" id="Layer_1" xmlns="http://www.w3.org/2000/svg" xmlns:xlink="http://www.w3.org/1999/xlink" 
	 viewBox="0 0 100 100" enable-background="new 0 0 100 100" xml:space="preserve">
<path d="M25.8,34.8c-11.3,0-15.6,3.1-15.8,3.3c-0.4,0.3-0.5,1-0.2,1.4c0.3,0.4,1,0.5,1.4,0.2c0,0,4.1-2.9,14.6-2.9
	c10.5,0,14.5,2.8,14.6,2.9c0.2,0.1,0.4,0.2,0.6,0.2c0.3,0,0.6-0.1,0.8-0.4c0.3-0.4,0.2-1.1-0.2-1.4C41.3,37.9,37,34.8,25.8,34.8z
	 M25.8,27.3C13,27.3,9,31.6,8.9,31.7c-0.4,0.4-0.3,1,0.1,1.4c0.2,0.2,0.4,0.3,0.7,0.3c0.3,0,0.5-0.1,0.7-0.3c0,0,3.6-3.8,15.4-3.8
	c11.6,0,15.3,3.7,15.4,3.8c0.4,0.4,1,0.4,1.4,0.1c0.4-0.4,0.4-1,0.1-1.4C42.5,31.6,38.5,27.3,25.8,27.3z M74.2,34.8
	c-11.3,0-15.6,3.1-15.8,3.3c-0.4,0.3-0.5,1-0.2,1.4c0.3,0.4,1,0.5,1.4,0.2c0,0,4.1-2.9,14.6-2.9c10.5,0,14.5,2.8,14.6,2.9
	c0.2,0.1,0.4,0.2,0.6,0.2c0.3,0,0.6-0.1,0.8-0.4c0.3-0.4,0.2-1.1-0.2-1.4C89.8,37.9,85.5,34.8,74.2,34.8z M91.1,31.7
	c-0.2-0.2-4.2-4.4-16.9-4.4c-12.7,0-16.7,4.2-16.9,4.4c-0.4,0.4-0.3,1,0.1,1.4c0.4,0.4,1,0.4,1.4,0c0,0,3.7-3.8,15.4-3.8
	c11.7,0,15.4,3.7,15.4,3.8c0.2,0.2,0.5,0.3,0.7,0.3c0.2,0,0.5-0.1,0.7-0.3C91.5,32.8,91.5,32.2,91.1,31.7z M42.9,26.2
	c-0.1-13-2.7-16.9-6.1-20.3C28.4-2.5,10.3,11,8.7,26.8c0.9-0.6,6.6-4,18.1-4C35.9,22.8,40.9,25,42.9,26.2z M91.2,26.1
	c-2.1-15.5-19.7-28.5-28-20.2c-3.4,3.4-6.1,7.4-6.1,20.8c0,0,0,0.1,0,0.1c0.2-0.1,5.9-4.1,18.2-4.1C84.2,22.8,89.1,24.9,91.2,26.1z
	 M74.2,41.7c-6.7,0-11.4,1.2-14.4,2.3c1.2,4.4,2.3,8.7,2.3,13.8c0,11-3.2,14.5-3.2,23.8s3.7,15.1,14.3,15.1
	c10.6,0,14.3-5.8,14.3-15.1s-1.9-7.7-1.9-18.7c0-8.2,2-12.8,3.6-18.4C86.8,43.3,82,41.7,74.2,41.7z M69.5,92
	c-0.2,0.4-0.5,0.6-0.9,0.6c-0.1,0-0.3,0-0.4-0.1C64,90.8,62,86.9,62,80.7c0-3.6,0.6-6.1,1.2-8.8c0.3-1.4,0.6-2.7,0.9-4.3
	c0.1-0.5,0.6-0.9,1.1-0.8c0.5,0.1,0.9,0.6,0.8,1.1c-0.3,1.6-0.6,3.1-0.9,4.5c-0.6,2.5-1.2,4.9-1.2,8.3c0,5.4,1.6,8.6,5,10
	C69.5,90.9,69.8,91.5,69.5,92z M40,44.2c-2.6-1.1-7.2-2.5-14.3-2.5c-7.3,0-12.2,1.4-15.1,2.5c1.7,5.8,3.7,10.3,3.7,18.7
	c0,11-1.9,9.4-1.9,18.7s3.7,15.1,14.3,15.1c10.6,0,14.3-5.8,14.3-15.1s-3.2-12.8-3.2-23.8C37.8,52.7,38.9,48.5,40,44.2z M22.5,91.4
	C22.3,91.8,22,92,21.6,92c-0.1,0-0.3,0-0.4-0.1c-3.9-1.6-5.7-5.2-5.7-10.9c0-3.2,0.4-5.3,0.7-7.3c0.3-1.8,0.6-3.6,0.6-6.1
	c0-0.6,0.4-1,1-1s1,0.4,1,1c0,2.7-0.3,4.6-0.7,6.4c-0.3,1.9-0.7,3.9-0.7,6.9c0,4.9,1.4,7.7,4.5,9C22.5,90.3,22.7,90.9,22.5,91.4z"/>
</svg>